# xmcd
#
# Track frame offsets:
#	150
#	28200
#	42129
#	56126
#	84228
#	94345
#	111615
#	124999
#	142314
#	173626
#	189312
#	230904
#
# Disc length: 3326 seconds
#
# Revision: 1
# Processed by: cddbd v1.5.2PL0 Copyright (c) Steve Scherf et al.
# Submitted via: EZCDAudioConverter 2.1.7.1
#
DISCID=b20cfc0c
DTITLE=V/A - Polish Funk V2
DYEAR=1900
DGENRE=
TTITLE0=Halina Frąckowiak - Idę Dalej (Further, I Go)
TTITLE1=Zdzisława Sośnicka - Żyj Sobie Sam (Live By Yourself)
TTITLE2=Niebiesko-Czarni - Atma
TTITLE3=Wojciech Skowroński - Do Tych Dni, Kolorowych Dni (Back To The Old, Co
TTITLE3=lorful Days)
TTITLE4=Krzysztof Sadowski and His Hammond Organ - Skąd My To Znamy (Something F
TTITLE4=amiliar)
TTITLE5=Grupa Organowa Krzysztofa Sadowskiego - Alfa Centaura (Alpha Centauri)
TTITLE6=Maciej Kossowski - Oczy Ci Zasłonię (I Shall Cover Your Eyes)
TTITLE7=Czesław Niemen I Enigmatic - Zechcesz Mnie Zechcesz (You Will Want Me)
TTITLE8=SBB - Palamakia
TTITLE9=Andrzej Zaucha - Księżniczka (Princess)
TTITLE10=Wojciech Skowroński - Blues And Rock
TTITLE11=Halina Frąckowiak - Wodo, Zimna Wodo (Water, Cold Water)
EXTD=
EXTT0=
EXTT1=
EXTT2=
EXTT3=
EXTT4=
EXTT5=
EXTT6=
EXTT7=
EXTT8=
EXTT9=
EXTT10=
EXTT11=
PLAYORDER=
